<svg xmlns="http://www.w3.org/2000/svg" version="1.1" xmlns:xlink="http://www.w3.org/1999/xlink" xmlns:svgjs="http://svgjs.com/svgjs" width="1000" height="1000.43"><svg xmlns="http://www.w3.org/2000/svg" xmlns:xlink="http://www.w3.org/1999/xlink" viewBox="0 0 1000 1000.43"><defs><style>.cls-1{fill:url(#Nueva_muestra_de_degradado_1);}</style><linearGradient id="SvgjsLinearGradient1002" y1="500.22" x2="1000" y2="500.22" gradientUnits="userSpaceOnUse"><stop offset="0.01" stop-color="#1ecad3"></stop><stop offset="1" stop-color="#5887da"></stop></linearGradient></defs><g id="SvgjsG1001" data-name="Capa 2"><g id="SvgjsG1000" data-name="Capa 1"><path class="cls-1" d="M913.24,111.16a86.38,86.38,0,0,0-45.75,13h0C782.53,52,672.66,21.41,572.58,41.64A86.78,86.78,0,0,0,420.09,124c-39.07,38.76-67.88,87.17-82,137.42a86.68,86.68,0,0,0-68.61,46.47Q213.56,285,160.93,243h0A86.76,86.76,0,1,0,45.61,274.31c-20.2,108.93,7.81,218.9,74.82,295.52A86.75,86.75,0,0,0,267.5,661.44a327.44,327.44,0,0,0,87.32,11.94,301.1,301.1,0,0,0,74.71-9.19A86.53,86.53,0,0,0,500,700.42c1.32,0,2.68,0,4-.11q8.13,60-2,126.63v0c-.65,0-1.29-.05-1.95-.05a86.76,86.76,0,1,0,86.76,86.76c0-.85,0-1.69-.07-2.53h0c104.43-37,185.66-116.25,218.53-212.59a86.73,86.73,0,0,0,5.86-173.13c-13.91-54.07-41.64-104-78.63-141.84a86.68,86.68,0,0,0-6-82.59q47.84-36.9,110.6-61.42h0a86.76,86.76,0,1,0,76.12-128.4ZM441.43,152.1A86.6,86.6,0,0,0,542,161.75l.31.42a545.66,545.66,0,0,1,66.39,110.88c0,.1.1.2.14.31a86.63,86.63,0,0,0-35.4,40.77c-24.5.59-48.38,5-72.84,9.62-21.93,4.09-44.18,8.22-68.44,10.2a85.66,85.66,0,0,0-9.26-27.31c-.56-1-1.15-2.08-1.77-3.13a83.81,83.81,0,0,0-7.67-10.93l-.07-.1A87.23,87.23,0,0,0,400.62,280a86,86,0,0,0-27.24-14.68C386.12,224.36,410,184.62,441.43,152.1ZM542.21,537.87a86.27,86.27,0,0,0-42.2-11,84.27,84.27,0,0,0-23.87,3.37c-15.62-23.19-32.14-42.48-47.54-60.49-14.13-16.49-27-31.55-37.55-47.48a86.71,86.71,0,0,0,39.66-53.47c27.94-1.95,52.92-6.6,76.28-11,21.31-4,40.74-7.6,59.72-8.78a86.41,86.41,0,0,0,26.41,61.08c-12.28,25.16-20.71,49.14-28.63,71.56C557.31,502.19,550.72,520.83,542.21,537.87ZM79,284.32h0c2.55.23,5.12.36,7.73.36a86.28,86.28,0,0,0,50.47-16.21h0Q196.3,316.15,260,341.55c-.17,2.08-.24,4.16-.24,6.25a86.39,86.39,0,0,0,17.94,52.81l-1.87,2.5a570.14,570.14,0,0,0-36.13,55.74,600.19,600.19,0,0,0-31.51,64.09c-.38.94-.8,1.88-1.15,2.81a78.91,78.91,0,0,0-10.72-.69,86.32,86.32,0,0,0-53.1,18.15C86.21,475.57,62.34,379.86,79,284.32ZM281.42,629a87.73,87.73,0,0,0,1.7-17.21A86.52,86.52,0,0,0,240,536.89v0c.07-.17.14-.28.21-.45A567.81,567.81,0,0,1,269.9,476a538.31,538.31,0,0,1,33.94-52.36c.07-.11.14-.18.21-.28a85.59,85.59,0,0,0,42.51,11.17,78.07,78.07,0,0,0,10.75-.69c12.81,21,28.64,39.49,44.91,58.47,14.44,16.91,29.15,34.08,43,54.07a86.74,86.74,0,0,0-19,21.69c-.69,1.08-1.32,2.12-1.91,3.23a82.43,82.43,0,0,0-5.69,12.32l-.07.17a83.77,83.77,0,0,0-4.3,17,82.92,82.92,0,0,0-1,12.88,85.35,85.35,0,0,0,1.91,18C372.86,641.32,325.87,640.41,281.42,629Zm297.3,248.13h0a87,87,0,0,0-42.77-42.46c7.85-50,8.5-97.79,2-143a87.17,87.17,0,0,0,42.3-44.84c1,.14,2.08.28,3.12.38a572.79,572.79,0,0,0,62.64,3.37h4a595.4,595.4,0,0,0,70.79-4.72c1-.14,2-.24,3-.38a87.11,87.11,0,0,0,47.05,46.57C740.68,775.31,669.75,843.84,578.72,877.16ZM776,529.57a86.75,86.75,0,0,0-59.16,81.87c-.18,0-.32,0-.49.07a565.5,565.5,0,0,1-66.7,4.44,539.42,539.42,0,0,1-62.57-3.16c-.14,0-.24,0-.38,0a86,86,0,0,0-17.6-51.5c11.7-21.56,19.78-44.49,28.08-68,7.42-21,15-42.34,25.37-64.34a84.77,84.77,0,0,0,28.59,5.58c.77.07,1.49.07,2.26.07.34,0,.69,0,1,0a80,80,0,0,0,13.84-1.28,81.79,81.79,0,0,0,17.11-4.79,86.47,86.47,0,0,0,26.1-16.21C741,444.13,763.69,485.32,776,529.57Zm50.84-323.33Q756,233.57,702.16,276A86.38,86.38,0,0,0,653.44,261a85.37,85.37,0,0,0-11.73.8c-.42-1-.83-2-1.29-2.95A581.2,581.2,0,0,0,569.87,141L568,138.6a86.18,86.18,0,0,0,17.21-51.84,80.87,80.87,0,0,0-.87-12c87.35-16.07,182.78,11,257.81,73.49a86.36,86.36,0,0,0-15.67,49.71c0,2.8.15,5.58.41,8.32Z"></path></g></g></svg><style>@media (prefers-color-scheme: light) { :root { filter: none; } }
</style></svg>