<svg xmlns="http://www.w3.org/2000/svg" xmlns:xlink="http://www.w3.org/1999/xlink" viewBox="0 0 1000 329.46"><defs><style>.cls-1{fill:url(#Nueva_muestra_de_degradado_1);}</style><linearGradient id="Nueva_muestra_de_degradado_1" y1="164.73" x2="329.32" y2="164.73" gradientUnits="userSpaceOnUse"><stop offset="0.01" stop-color="#1ecad3"/><stop offset="1" stop-color="#5887da"/></linearGradient></defs><g id="Capa_2" data-name="Capa 2"><g id="Capa_1-2" data-name="Capa 1"><path d="M371.43,126.93V140.7h24.15v60.37h13.76V140.7h24.17V126.93Z"/><path d="M489.8,154.16a23.1,23.1,0,0,0-8.09-8.08,21.63,21.63,0,0,0-11.23-3,21.3,21.3,0,0,0-15.53,6.6l-.05-22.73H441.13l.05,74.14H455V169a11.74,11.74,0,0,1,1.61-6.06,12.09,12.09,0,0,1,4.35-4.35,12.3,12.3,0,0,1,12.13,0,12.25,12.25,0,0,1,4.38,4.35,11.57,11.57,0,0,1,1.63,6.06v32h13.77V165.42A21.53,21.53,0,0,0,489.8,154.16Z"/><path d="M532.59,143.06a21.26,21.26,0,0,0-15.51,6.6l-.07-5H503.25l.06,56.43h13.77V169a11.64,11.64,0,0,1,1.6-6.06,11.94,11.94,0,0,1,4.35-4.35,11.64,11.64,0,0,1,6.06-1.6,11.38,11.38,0,0,1,4.28.85L538.8,144A21.88,21.88,0,0,0,532.59,143.06Z"/><path d="M593.55,164.57A31.39,31.39,0,0,0,588,153.51a27.62,27.62,0,0,0-9.34-7.64,27.24,27.24,0,0,0-23-.49,28.38,28.38,0,0,0-9,6.4,30.85,30.85,0,0,0-6.06,9.48,31.16,31.16,0,0,0,1.6,26.5,29.62,29.62,0,0,0,10.21,10.78,27.06,27.06,0,0,0,29.49-.76,30,30,0,0,0,10.27-12.27L578,182.23a15.35,15.35,0,0,1-4.93,4.83,12.23,12.23,0,0,1-6.59,1.71,13.35,13.35,0,0,1-6.25-1.55,13.22,13.22,0,0,1-4.58-4,16,16,0,0,1-2.59-5.67h41.24A31.27,31.27,0,0,0,593.55,164.57Zm-40.92,2.64a16,16,0,0,1,2.74-6.17,15,15,0,0,1,4.89-4.34,12.6,12.6,0,0,1,6.25-1.61,12.78,12.78,0,0,1,6.33,1.63,15.32,15.32,0,0,1,4.93,4.38,14.65,14.65,0,0,1,2.63,6.11Z"/><path d="M645.62,144.64l.64,7.22a25.61,25.61,0,0,0-7.55-6.3,20,20,0,0,0-10-2.5,28,28,0,0,0-11.29,2.27,29,29,0,0,0-17.73,26.92A29.36,29.36,0,0,0,602,184a30.66,30.66,0,0,0,16.11,16.19,29.21,29.21,0,0,0,11.73,2.37,17,17,0,0,0,9-2.33,18.28,18.28,0,0,0,6.11-6.13l.62,7h13.77V144.64Zm-3,36.49a15.13,15.13,0,0,1-5.31,5.94,13.76,13.76,0,0,1-7.79,2.22,14.59,14.59,0,0,1-7.87-2.22,16.92,16.92,0,0,1-5.75-22.5,16.62,16.62,0,0,1,5.7-6,14.76,14.76,0,0,1,7.92-2.23,14.11,14.11,0,0,1,7.77,2.21,15.2,15.2,0,0,1,5.33,5.95,18.88,18.88,0,0,1,0,16.59Z"/><path d="M688.59,144.64V126.93H674.82v17.71h-8.34v13.77h8.34v42.66h13.77V158.41h10.95V144.64Z"/><path d="M782.44,126.93,770,176.08l-12.53-49.15H742.39l-12.54,49.15-12.53-49.15H703.11l18.95,74.14h15.69l12.14-47.84,12.3,47.84h15.63l18.85-74.14Z"/><path d="M805,144.64v56.43h13.77V144.64Z"/><path d="M879.13,154.16a22.88,22.88,0,0,0-8.1-8.08,21.6,21.6,0,0,0-26.73,3.58l-.07-5H830.46l.07,56.43H844.3V169a11.82,11.82,0,0,1,1.59-6.06,12.09,12.09,0,0,1,4.35-4.35,12.31,12.31,0,0,1,12.14,0,12.15,12.15,0,0,1,4.37,4.35,11.57,11.57,0,0,1,1.64,6.06v32h13.77V165.42A21.45,21.45,0,0,0,879.13,154.16Z"/><path d="M935,126.93V151.7a21.08,21.08,0,0,0-6.83-6.18,19,19,0,0,0-9.55-2.34,28.57,28.57,0,0,0-11.5,2.31,30.33,30.33,0,0,0-15.86,15.86,29.83,29.83,0,0,0,0,23,30.26,30.26,0,0,0,15.86,15.85,28.58,28.58,0,0,0,11.5,2.32,18.82,18.82,0,0,0,9.55-2.37A21.48,21.48,0,0,0,935,194v7.06H948.8V126.93Zm-3.12,54.2a15,15,0,0,1-5.29,5.94,13.85,13.85,0,0,1-7.79,2.22,14.52,14.52,0,0,1-7.87-2.22,16.51,16.51,0,0,1-5.74-5.91,16.33,16.33,0,0,1-2.13-8.29,16.47,16.47,0,0,1,7.81-14.26,14.77,14.77,0,0,1,7.93-2.23,14.13,14.13,0,0,1,7.76,2.21,15,15,0,0,1,5.32,5.95,18.79,18.79,0,0,1,0,16.59Z"/><path d="M990.39,170.55a58,58,0,0,0-9.34-4c-1.48-.45-3-.86-4.61-1.24a13.39,13.39,0,0,1-4.09-1.61,3.52,3.52,0,0,1-1.7-3.19,5,5,0,0,1,1.28-3.6,6.88,6.88,0,0,1,3.35-1.93,15.54,15.54,0,0,1,4.63-.45,11.4,11.4,0,0,1,3.78.88,12.67,12.67,0,0,1,3.23,1.92,9.88,9.88,0,0,1,2.2,2.51l10.88-6.44a22.07,22.07,0,0,0-8.88-7.87,27.47,27.47,0,0,0-12.33-2.8,24.2,24.2,0,0,0-10.3,2.2,19.7,19.7,0,0,0-7.73,6.27,15.93,15.93,0,0,0-3,9.65,13.71,13.71,0,0,0,2.79,8.67,20.75,20.75,0,0,0,7.39,5.83,39.43,39.43,0,0,0,10,3.33c1.35.34,2.75.71,4.2,1.1a9.94,9.94,0,0,1,3.62,1.75,3.92,3.92,0,0,1,1.43,3.24A4.47,4.47,0,0,1,986,188a7.36,7.36,0,0,1-3.16,1.82,13.63,13.63,0,0,1-4.09.6,12.67,12.67,0,0,1-4.66-.84,13.47,13.47,0,0,1-3.65-2.12,10.19,10.19,0,0,1-2.2-2.4l-11.62,5a17.66,17.66,0,0,0,4.85,6.21,24.88,24.88,0,0,0,7.26,4.09,30.81,30.81,0,0,0,8.48,1.78,23.66,23.66,0,0,0,11-1.7,20.84,20.84,0,0,0,8.44-6.24,14.84,14.84,0,0,0,3.27-9.56,12.7,12.7,0,0,0-2.54-8.25A22.16,22.16,0,0,0,990.39,170.55Z"/><path d="M812,141a7.12,7.12,0,0,1-5.14-2,7.11,7.11,0,0,1,0-10.07,7,7,0,0,1,5.08-2,6.89,6.89,0,0,1,5,2A7.22,7.22,0,0,1,817,139,6.87,6.87,0,0,1,812,141Z"/><path class="cls-1" d="M300.75,36.61a28.46,28.46,0,0,0-15.07,4.29h0c-28-23.77-64.16-33.85-97.12-27.19a28.58,28.58,0,0,0-50.21,27.14,104.4,104.4,0,0,0-27,45.25,28.55,28.55,0,0,0-22.59,15.31A145.89,145.89,0,0,1,53,80h0A28.57,28.57,0,1,0,15,90.34c-6.65,35.87,2.57,72.08,24.64,97.32a28.57,28.57,0,0,0,48.43,30.17,107.79,107.79,0,0,0,28.76,3.93,99.21,99.21,0,0,0,24.6-3,28.51,28.51,0,0,0,23.22,11.93c.43,0,.88,0,1.31,0a146.46,146.46,0,0,1-.67,41.7h0l-.64,0a28.57,28.57,0,1,0,28.57,28.57c0-.28,0-.55,0-.83h0c34.39-12.19,61.15-38.29,72-70a28.56,28.56,0,0,0,1.93-57,104.52,104.52,0,0,0-25.9-46.71,28.12,28.12,0,0,0,2.55-11.78,28.41,28.41,0,0,0-4.51-15.42,146.24,146.24,0,0,1,36.42-20.23h0a28.57,28.57,0,1,0,25.07-42.28ZM145.37,50.09a28.55,28.55,0,0,0,33.14,3.18l.1.14a179.71,179.71,0,0,1,21.86,36.51s0,.07.05.1a28.53,28.53,0,0,0-11.66,13.43c-8.07.2-15.93,1.66-24,3.17A214.86,214.86,0,0,1,142.33,110a28.1,28.1,0,0,0-3.05-9c-.18-.34-.37-.68-.58-1a27.79,27.79,0,0,0-2.53-3.6l0,0a28.92,28.92,0,0,0-4.22-4.13,28.28,28.28,0,0,0-9-4.83A95.31,95.31,0,0,1,145.37,50.09Zm33.19,127a28.36,28.36,0,0,0-13.89-3.61,27.92,27.92,0,0,0-7.87,1.11,213.44,213.44,0,0,0-15.65-19.92,161.28,161.28,0,0,1-12.37-15.64,28.55,28.55,0,0,0,13.06-17.61A213.1,213.1,0,0,0,167,117.85,165,165,0,0,1,186.63,115a28.39,28.39,0,0,0,8.7,20.11,214.88,214.88,0,0,0-9.43,23.57A161.52,161.52,0,0,1,178.56,177.13ZM26,93.63h0c.84.08,1.68.12,2.54.12a28.4,28.4,0,0,0,16.62-5.34h0a156.61,156.61,0,0,0,40.45,24.07c-.06.69-.08,1.37-.08,2.06a28.39,28.39,0,0,0,5.91,17.39l-.62.82A189.85,189.85,0,0,0,79,151.11a198.48,198.48,0,0,0-10.38,21.11c-.12.31-.26.61-.37.92a25.74,25.74,0,0,0-3.53-.23,28.4,28.4,0,0,0-17.49,6C28.39,156.62,20.53,125.1,26,93.63ZM92.68,207.15a29.2,29.2,0,0,0,.56-5.66A28.51,28.51,0,0,0,79,176.81h0a1,1,0,0,0,.07-.15,187.78,187.78,0,0,1,9.77-19.88,178.15,178.15,0,0,1,11.18-17.25l.07-.09a28.24,28.24,0,0,0,14,3.68,25.88,25.88,0,0,0,3.54-.23c4.22,6.91,9.43,13,14.79,19.26a217.86,217.86,0,0,1,14.15,17.8,28.5,28.5,0,0,0-6.25,7.15,11.37,11.37,0,0,0-.63,1.06,27.73,27.73,0,0,0-1.88,4.06l0,0A28.52,28.52,0,0,0,136.72,208,95,95,0,0,1,92.68,207.15Zm97.91,81.72h0a28.65,28.65,0,0,0-14.09-14,157.09,157.09,0,0,0,.64-47.08A28.7,28.7,0,0,0,191.07,213l1,.13a189.79,189.79,0,0,0,20.63,1.1H214a195.65,195.65,0,0,0,23.31-1.55l1-.13a28.72,28.72,0,0,0,15.5,15.34C243.92,255.33,220.56,277.9,190.59,288.87Zm65-114.47a28.58,28.58,0,0,0-19.49,27l-.16,0a186,186,0,0,1-22,1.47,179.34,179.34,0,0,1-20.61-1l-.12,0a28.36,28.36,0,0,0-5.8-17c3.85-7.09,6.52-14.65,9.25-22.4A217,217,0,0,1,205,141.25a28,28,0,0,0,9.42,1.84c.25,0,.49,0,.74,0h.34a25.36,25.36,0,0,0,4.56-.43,26.76,26.76,0,0,0,5.64-1.57,28.52,28.52,0,0,0,8.59-5.34A95.06,95.06,0,0,1,255.57,174.4ZM272.31,67.92a157.18,157.18,0,0,0-41.07,23A28.41,28.41,0,0,0,215.19,86a28.87,28.87,0,0,0-3.86.26l-.42-1a192.08,192.08,0,0,0-23.24-38.83l-.62-.78a28.39,28.39,0,0,0,5.67-17.08,27.15,27.15,0,0,0-.28-4c28.76-5.3,60.19,3.62,84.9,24.2a28.43,28.43,0,0,0-5.16,16.37c0,.92.05,1.84.13,2.74Z"/></g></g></svg>